<svg width="106" height="60" viewBox="0 0 106 60" fill="none" xmlns="http://www.w3.org/2000/svg">
<path d="M24.1462 21.1028H24.1433C21.7453 21.1028 19.8013 22.8304 19.8013 24.9615V24.964C19.8013 27.0951 21.7453 28.8227 24.1433 28.8227H24.1462C26.5442 28.8227 28.4882 27.0951 28.4882 24.964V24.9615C28.4882 22.8304 26.5442 21.1028 24.1462 21.1028Z" fill="#2196F3"/>
<path d="M56.195 19.8693C56.1882 16.9093 54.8623 14.0722 52.5074 11.979C50.1525 9.88568 46.9604 8.70667 43.6297 8.69995V8.69995C40.298 8.70533 37.1045 9.88374 34.7484 11.9772C32.3922 14.0706 31.0655 16.9084 31.0587 19.8693V36.1921C31.0587 36.1921 56.1922 33.7044 56.195 19.8718V19.8693Z" fill="#2196F3"/>
<path d="M11 41.5495C11.006 43.6091 11.9291 45.5828 13.5676 47.0394C15.2061 48.496 17.4267 49.317 19.7442 49.3231C22.0612 49.317 24.2814 48.4963 25.9197 47.0403C27.5581 45.5843 28.4816 43.6112 28.4884 41.552V30.1943C28.4884 30.1943 11 31.9266 11 41.5495ZM19.7442 43.5844C19.2913 43.5844 18.8486 43.4651 18.472 43.2415C18.0955 43.0179 17.802 42.7001 17.6287 42.3282C17.4554 41.9564 17.41 41.5472 17.4984 41.1525C17.5867 40.7577 17.8048 40.3951 18.125 40.1105C18.4453 39.8259 18.8533 39.6321 19.2975 39.5536C19.7416 39.4751 20.202 39.5154 20.6205 39.6694C21.0389 39.8234 21.3965 40.0843 21.6481 40.4189C21.8997 40.7535 22.034 41.147 22.034 41.5495C22.0351 41.8173 21.9767 42.0828 21.8622 42.3306C21.7476 42.5783 21.5791 42.8036 21.3664 42.9933C21.1536 43.1831 20.9008 43.3337 20.6224 43.4364C20.3441 43.5392 20.0456 43.5921 19.7442 43.5921V43.5844Z" fill="#2196F3"/>
<path d="M35.2598 39.7344V44H34.3809V39.7344H35.2598ZM36.959 41.5566V42.2422H35.0195V41.5566H36.959ZM37.1641 39.7344V40.4229H35.0195V39.7344H37.1641ZM41.1777 41.7676V41.9697C41.1777 42.2939 41.1338 42.585 41.0459 42.8428C40.958 43.1006 40.834 43.3203 40.6738 43.502C40.5137 43.6816 40.3223 43.8193 40.0996 43.915C39.8789 44.0107 39.6338 44.0586 39.3643 44.0586C39.0967 44.0586 38.8516 44.0107 38.6289 43.915C38.4082 43.8193 38.2168 43.6816 38.0547 43.502C37.8926 43.3203 37.7666 43.1006 37.6768 42.8428C37.5889 42.585 37.5449 42.2939 37.5449 41.9697V41.7676C37.5449 41.4414 37.5889 41.1504 37.6768 40.8945C37.7646 40.6367 37.8887 40.417 38.0488 40.2354C38.2109 40.0537 38.4023 39.915 38.623 39.8193C38.8457 39.7236 39.0908 39.6758 39.3584 39.6758C39.6279 39.6758 39.873 39.7236 40.0938 39.8193C40.3164 39.915 40.5078 40.0537 40.668 40.2354C40.8301 40.417 40.9551 40.6367 41.043 40.8945C41.1328 41.1504 41.1777 41.4414 41.1777 41.7676ZM40.29 41.9697V41.7617C40.29 41.5352 40.2695 41.3359 40.2285 41.1641C40.1875 40.9922 40.127 40.8477 40.0469 40.7305C39.9668 40.6133 39.8691 40.5254 39.7539 40.4668C39.6387 40.4062 39.5068 40.376 39.3584 40.376C39.21 40.376 39.0781 40.4062 38.9629 40.4668C38.8496 40.5254 38.7529 40.6133 38.6729 40.7305C38.5947 40.8477 38.5352 40.9922 38.4941 41.1641C38.4531 41.3359 38.4326 41.5352 38.4326 41.7617V41.9697C38.4326 42.1943 38.4531 42.3936 38.4941 42.5674C38.5352 42.7393 38.5957 42.8848 38.6758 43.0039C38.7559 43.1211 38.8535 43.21 38.9688 43.2705C39.084 43.3311 39.2158 43.3613 39.3643 43.3613C39.5127 43.3613 39.6445 43.3311 39.7598 43.2705C39.875 43.21 39.9717 43.1211 40.0498 43.0039C40.1279 42.8848 40.1875 42.7393 40.2285 42.5674C40.2695 42.3936 40.29 42.1943 40.29 41.9697ZM44.0312 42.8838C44.0312 42.8076 44.0195 42.7393 43.9961 42.6787C43.9746 42.6162 43.9336 42.5596 43.873 42.5088C43.8125 42.4561 43.7275 42.4043 43.6182 42.3535C43.5088 42.3027 43.3672 42.25 43.1934 42.1953C43 42.1328 42.8164 42.0625 42.6426 41.9844C42.4707 41.9062 42.3184 41.8154 42.1855 41.7119C42.0547 41.6064 41.9512 41.4844 41.875 41.3457C41.8008 41.207 41.7637 41.0459 41.7637 40.8623C41.7637 40.6846 41.8027 40.5234 41.8809 40.3789C41.959 40.2324 42.0684 40.1074 42.209 40.0039C42.3496 39.8984 42.5156 39.8174 42.707 39.7607C42.9004 39.7041 43.1123 39.6758 43.3428 39.6758C43.6572 39.6758 43.9316 39.7324 44.166 39.8457C44.4004 39.959 44.582 40.1143 44.7109 40.3115C44.8418 40.5088 44.9072 40.7344 44.9072 40.9883H44.0342C44.0342 40.8633 44.0078 40.7539 43.9551 40.6602C43.9043 40.5645 43.8262 40.4893 43.7207 40.4346C43.6172 40.3799 43.4863 40.3525 43.3281 40.3525C43.1758 40.3525 43.0488 40.376 42.9473 40.4229C42.8457 40.4678 42.7695 40.5293 42.7188 40.6074C42.668 40.6836 42.6426 40.7695 42.6426 40.8652C42.6426 40.9375 42.6602 41.0029 42.6953 41.0615C42.7324 41.1201 42.7871 41.1748 42.8594 41.2256C42.9316 41.2764 43.0205 41.3242 43.126 41.3691C43.2314 41.4141 43.3535 41.458 43.4922 41.501C43.7246 41.5713 43.9287 41.6504 44.1045 41.7383C44.2822 41.8262 44.4307 41.9248 44.5498 42.0342C44.6689 42.1436 44.7588 42.2676 44.8193 42.4062C44.8799 42.5449 44.9102 42.7021 44.9102 42.8779C44.9102 43.0635 44.874 43.2295 44.8018 43.376C44.7295 43.5225 44.625 43.6465 44.4883 43.748C44.3516 43.8496 44.1885 43.9268 43.999 43.9795C43.8096 44.0322 43.5977 44.0586 43.3633 44.0586C43.1523 44.0586 42.9443 44.0312 42.7393 43.9766C42.5342 43.9199 42.3477 43.835 42.1797 43.7217C42.0137 43.6084 41.8809 43.4639 41.7812 43.2881C41.6816 43.1123 41.6318 42.9043 41.6318 42.6641H42.5137C42.5137 42.7969 42.5342 42.9092 42.5752 43.001C42.6162 43.0928 42.6738 43.167 42.748 43.2236C42.8242 43.2803 42.9141 43.3213 43.0176 43.3467C43.123 43.3721 43.2383 43.3848 43.3633 43.3848C43.5156 43.3848 43.6406 43.3633 43.7383 43.3203C43.8379 43.2773 43.9111 43.2178 43.958 43.1416C44.0068 43.0654 44.0312 42.9795 44.0312 42.8838ZM47.415 39.7344V44H46.5391V39.7344H47.415ZM48.7275 39.7344V40.4229H45.2471V39.7344H48.7275ZM52.0908 43.3145V44H49.8203V43.3145H52.0908ZM50.1074 39.7344V44H49.2285V39.7344H50.1074ZM51.7949 41.4717V42.1396H49.8203V41.4717H51.7949ZM52.0879 39.7344V40.4229H49.8203V39.7344H52.0879ZM52.6035 39.7344H54.1943C54.5205 39.7344 54.8008 39.7832 55.0352 39.8809C55.2715 39.9785 55.4531 40.123 55.5801 40.3145C55.707 40.5059 55.7705 40.7412 55.7705 41.0205C55.7705 41.249 55.7314 41.4453 55.6533 41.6094C55.5771 41.7715 55.4688 41.9072 55.3281 42.0166C55.1895 42.124 55.0264 42.21 54.8389 42.2744L54.5605 42.4209H53.1777L53.1719 41.7354H54.2002C54.3545 41.7354 54.4824 41.708 54.584 41.6533C54.6855 41.5986 54.7617 41.5225 54.8125 41.4248C54.8652 41.3271 54.8916 41.2139 54.8916 41.085C54.8916 40.9482 54.8662 40.8301 54.8154 40.7305C54.7646 40.6309 54.6875 40.5547 54.584 40.502C54.4805 40.4492 54.3506 40.4229 54.1943 40.4229H53.4824V44H52.6035V39.7344ZM54.9883 44L54.0156 42.0986L54.9443 42.0928L55.9287 43.959V44H54.9883ZM59.6025 42.4795H58.5156V41.7939H59.6025C59.7705 41.7939 59.9072 41.7666 60.0127 41.7119C60.1182 41.6553 60.1953 41.5771 60.2441 41.4775C60.293 41.3779 60.3174 41.2656 60.3174 41.1406C60.3174 41.0137 60.293 40.8955 60.2441 40.7861C60.1953 40.6768 60.1182 40.5889 60.0127 40.5225C59.9072 40.4561 59.7705 40.4229 59.6025 40.4229H58.8203V44H57.9414V39.7344H59.6025C59.9365 39.7344 60.2227 39.7949 60.4609 39.916C60.7012 40.0352 60.8848 40.2002 61.0117 40.4111C61.1387 40.6221 61.2021 40.8633 61.2021 41.1348C61.2021 41.4102 61.1387 41.6484 61.0117 41.8496C60.8848 42.0508 60.7012 42.2061 60.4609 42.3154C60.2227 42.4248 59.9365 42.4795 59.6025 42.4795ZM64.6709 43.3145V44H62.4004V43.3145H64.6709ZM62.6875 39.7344V44H61.8086V39.7344H62.6875ZM64.375 41.4717V42.1396H62.4004V41.4717H64.375ZM64.668 39.7344V40.4229H62.4004V39.7344H64.668ZM67.1494 39.7344V44H66.2734V39.7344H67.1494ZM68.4619 39.7344V40.4229H64.9814V39.7344H68.4619ZM71.8252 43.3145V44H69.5547V43.3145H71.8252ZM69.8418 39.7344V44H68.9629V39.7344H69.8418ZM71.5293 41.4717V42.1396H69.5547V41.4717H71.5293ZM71.8223 39.7344V40.4229H69.5547V39.7344H71.8223ZM72.3379 39.7344H73.9287C74.2549 39.7344 74.5352 39.7832 74.7695 39.8809C75.0059 39.9785 75.1875 40.123 75.3145 40.3145C75.4414 40.5059 75.5049 40.7412 75.5049 41.0205C75.5049 41.249 75.4658 41.4453 75.3877 41.6094C75.3115 41.7715 75.2031 41.9072 75.0625 42.0166C74.9238 42.124 74.7607 42.21 74.5732 42.2744L74.2949 42.4209H72.9121L72.9062 41.7354H73.9346C74.0889 41.7354 74.2168 41.708 74.3184 41.6533C74.4199 41.5986 74.4961 41.5225 74.5469 41.4248C74.5996 41.3271 74.626 41.2139 74.626 41.085C74.626 40.9482 74.6006 40.8301 74.5498 40.7305C74.499 40.6309 74.4219 40.5547 74.3184 40.502C74.2148 40.4492 74.085 40.4229 73.9287 40.4229H73.2168V44H72.3379V39.7344ZM74.7227 44L73.75 42.0986L74.6787 42.0928L75.6631 43.959V44H74.7227ZM78.4023 42.8838C78.4023 42.8076 78.3906 42.7393 78.3672 42.6787C78.3457 42.6162 78.3047 42.5596 78.2441 42.5088C78.1836 42.4561 78.0986 42.4043 77.9893 42.3535C77.8799 42.3027 77.7383 42.25 77.5645 42.1953C77.3711 42.1328 77.1875 42.0625 77.0137 41.9844C76.8418 41.9062 76.6895 41.8154 76.5566 41.7119C76.4258 41.6064 76.3223 41.4844 76.2461 41.3457C76.1719 41.207 76.1348 41.0459 76.1348 40.8623C76.1348 40.6846 76.1738 40.5234 76.252 40.3789C76.3301 40.2324 76.4395 40.1074 76.5801 40.0039C76.7207 39.8984 76.8867 39.8174 77.0781 39.7607C77.2715 39.7041 77.4834 39.6758 77.7139 39.6758C78.0283 39.6758 78.3027 39.7324 78.5371 39.8457C78.7715 39.959 78.9531 40.1143 79.082 40.3115C79.2129 40.5088 79.2783 40.7344 79.2783 40.9883H78.4053C78.4053 40.8633 78.3789 40.7539 78.3262 40.6602C78.2754 40.5645 78.1973 40.4893 78.0918 40.4346C77.9883 40.3799 77.8574 40.3525 77.6992 40.3525C77.5469 40.3525 77.4199 40.376 77.3184 40.4229C77.2168 40.4678 77.1406 40.5293 77.0898 40.6074C77.0391 40.6836 77.0137 40.7695 77.0137 40.8652C77.0137 40.9375 77.0312 41.0029 77.0664 41.0615C77.1035 41.1201 77.1582 41.1748 77.2305 41.2256C77.3027 41.2764 77.3916 41.3242 77.4971 41.3691C77.6025 41.4141 77.7246 41.458 77.8633 41.501C78.0957 41.5713 78.2998 41.6504 78.4756 41.7383C78.6533 41.8262 78.8018 41.9248 78.9209 42.0342C79.04 42.1436 79.1299 42.2676 79.1904 42.4062C79.251 42.5449 79.2812 42.7021 79.2812 42.8779C79.2812 43.0635 79.2451 43.2295 79.1729 43.376C79.1006 43.5225 78.9961 43.6465 78.8594 43.748C78.7227 43.8496 78.5596 43.9268 78.3701 43.9795C78.1807 44.0322 77.9688 44.0586 77.7344 44.0586C77.5234 44.0586 77.3154 44.0312 77.1104 43.9766C76.9053 43.9199 76.7188 43.835 76.5508 43.7217C76.3848 43.6084 76.252 43.4639 76.1523 43.2881C76.0527 43.1123 76.0029 42.9043 76.0029 42.6641H76.8848C76.8848 42.7969 76.9053 42.9092 76.9463 43.001C76.9873 43.0928 77.0449 43.167 77.1191 43.2236C77.1953 43.2803 77.2852 43.3213 77.3887 43.3467C77.4941 43.3721 77.6094 43.3848 77.7344 43.3848C77.8867 43.3848 78.0117 43.3633 78.1094 43.3203C78.209 43.2773 78.2822 43.2178 78.3291 43.1416C78.3779 43.0654 78.4023 42.9795 78.4023 42.8838Z" fill="#2196F3"/>
</svg>
