<svg width="106" height="60" viewBox="0 0 106 60" fill="none" xmlns="http://www.w3.org/2000/svg">
<path fill-rule="evenodd" clip-rule="evenodd" d="M38 7L45.0078 13.6341L32 13.6265V45.8137H66V33.507L73 40.1338V7H38ZM65.6924 32.7283L45.8226 13.918H65.6924V32.7283ZM59.5231 41.1055H37.3801V19.4579H38.9453V39.6397H59.5231V41.1055ZM41.7959 51.7959L40.9707 50.0991H40.2896L41.4858 52.3452V53.6538H42.1035V52.3452L43.2998 50.0991H42.6211L41.7959 51.7959ZM44.8379 50.0991H44.9844L46.3271 53.6538H45.6826L45.395 52.8213H44.0189L43.7319 53.6538H43.0898L44.4277 50.0991H44.5718H44.8379ZM44.1864 52.3354H45.2271L44.7062 50.8274L44.1864 52.3354ZM48.4821 51.7465C48.4553 51.7124 48.4295 51.6792 48.4048 51.647C48.3136 51.5265 48.2428 51.4102 48.1924 51.2979C48.1419 51.1839 48.1167 51.0667 48.1167 50.9463C48.1167 50.7607 48.1549 50.6012 48.2314 50.4678C48.3079 50.3343 48.4162 50.2318 48.5562 50.1602C48.6961 50.0869 48.8597 50.0503 49.0469 50.0503C49.2275 50.0503 49.383 50.0869 49.5132 50.1602C49.645 50.2318 49.7459 50.327 49.8159 50.4458C49.8875 50.5646 49.9233 50.6948 49.9233 50.8364C49.9233 50.9487 49.903 51.0513 49.8623 51.144C49.8216 51.2368 49.7655 51.3215 49.6938 51.3979C49.6222 51.4744 49.5392 51.5469 49.4448 51.6152L49.1979 51.7949L49.9018 52.6257C49.925 52.58 49.946 52.5321 49.9648 52.4819C50.0251 52.3257 50.0552 52.1523 50.0552 51.9619H50.563C50.563 52.1344 50.5459 52.298 50.5117 52.4526C50.4792 52.6073 50.4263 52.7505 50.353 52.8823C50.3233 52.937 50.2897 52.9893 50.2522 53.0392L50.7729 53.6538H50.0918L49.8852 53.4108C49.7734 53.4957 49.6518 53.562 49.5205 53.6099C49.348 53.6717 49.1641 53.7026 48.9688 53.7026C48.7327 53.7026 48.5285 53.6595 48.356 53.5732C48.1834 53.487 48.05 53.3682 47.9556 53.2168C47.8628 53.0654 47.8164 52.8921 47.8164 52.6968C47.8164 52.5519 47.8465 52.425 47.9067 52.3159C47.967 52.2052 48.0492 52.1027 48.1533 52.0083C48.2495 51.921 48.3591 51.8338 48.4821 51.7465ZM48.7738 52.1036L48.7002 52.1572C48.6139 52.2272 48.5496 52.2948 48.5073 52.3599C48.4666 52.4233 48.4398 52.4819 48.4268 52.5356C48.4137 52.5894 48.4072 52.6366 48.4072 52.6772C48.4072 52.7814 48.4292 52.8758 48.4731 52.9604C48.5187 53.0451 48.5846 53.1126 48.6709 53.1631C48.7588 53.2119 48.8654 53.2363 48.9907 53.2363C49.1258 53.2363 49.2568 53.2062 49.3838 53.146C49.4474 53.115 49.5078 53.0777 49.5648 53.034L48.7738 52.1036ZM48.9143 51.4544L49.1323 51.3076C49.2349 51.2393 49.3081 51.1725 49.3521 51.1074C49.396 51.0407 49.418 50.9577 49.418 50.8584C49.418 50.7738 49.3854 50.6956 49.3203 50.624C49.2552 50.5524 49.1632 50.5166 49.0444 50.5166C48.9614 50.5166 48.8914 50.5361 48.8345 50.5752C48.7775 50.6126 48.7344 50.6631 48.7051 50.7266C48.6774 50.7884 48.6636 50.8576 48.6636 50.9341C48.6636 51.0073 48.6823 51.083 48.7197 51.1611C48.7572 51.2376 48.8084 51.3182 48.8735 51.4028C48.8868 51.4197 48.9004 51.4369 48.9143 51.4544ZM55.1333 52.4966H54.5229C54.505 52.6512 54.4676 52.7822 54.4106 52.8896C54.3553 52.9954 54.2731 53.076 54.1641 53.1313C54.0566 53.1867 53.9159 53.2144 53.7417 53.2144C53.5985 53.2144 53.4756 53.1859 53.373 53.1289C53.2705 53.0719 53.1859 52.9914 53.1191 52.8872C53.054 52.783 53.0052 52.6585 52.9727 52.5137C52.9417 52.3672 52.9263 52.2044 52.9263 52.0254V51.7251C52.9263 51.5363 52.9434 51.3687 52.9775 51.2222C53.0133 51.0741 53.0662 50.9495 53.1362 50.8486C53.2062 50.7477 53.2933 50.6712 53.3975 50.6191C53.5016 50.5671 53.6237 50.541 53.7637 50.541C53.9346 50.541 54.0729 50.5703 54.1787 50.6289C54.2845 50.6859 54.3643 50.7689 54.418 50.8779C54.4733 50.987 54.5091 51.118 54.5254 51.271H55.1357C55.1113 51.0334 55.0446 50.8226 54.9355 50.6387C54.8281 50.4548 54.6768 50.3107 54.4814 50.2065C54.2861 50.1024 54.0469 50.0503 53.7637 50.0503C53.5407 50.0503 53.3397 50.0894 53.1606 50.1675C52.9832 50.2456 52.8311 50.3587 52.7041 50.5068C52.5771 50.6533 52.4795 50.8299 52.4111 51.0366C52.3444 51.2433 52.311 51.4744 52.311 51.73V52.0254C52.311 52.2809 52.3436 52.512 52.4087 52.7188C52.4754 52.9255 52.5715 53.1021 52.6968 53.2485C52.8221 53.3934 52.9727 53.5057 53.1484 53.5854C53.3242 53.6636 53.522 53.7026 53.7417 53.7026C54.0282 53.7026 54.2715 53.6506 54.4717 53.5464C54.6719 53.4422 54.8273 53.2998 54.938 53.1191C55.0487 52.9368 55.1138 52.7293 55.1333 52.4966ZM58.5244 51.9741V51.7788C58.5244 51.5103 58.4886 51.2702 58.417 51.0586C58.347 50.8454 58.2469 50.6639 58.1167 50.5142C57.9865 50.3628 57.8311 50.248 57.6504 50.1699C57.4697 50.0902 57.2695 50.0503 57.0498 50.0503C56.8317 50.0503 56.6323 50.0902 56.4517 50.1699C56.2726 50.248 56.1172 50.3628 55.9854 50.5142C55.8551 50.6639 55.7542 50.8454 55.6826 51.0586C55.611 51.2702 55.5752 51.5103 55.5752 51.7788V51.9741C55.5752 52.2427 55.611 52.4836 55.6826 52.6968C55.7559 52.91 55.8584 53.0915 55.9902 53.2412C56.1221 53.3909 56.2775 53.5057 56.4565 53.5854C56.6372 53.6636 56.8366 53.7026 57.0547 53.7026C57.2744 53.7026 57.4746 53.6636 57.6553 53.5854C57.8359 53.5057 57.9906 53.3909 58.1191 53.2412C58.2493 53.0915 58.3494 52.91 58.4194 52.6968C58.4894 52.4836 58.5244 52.2427 58.5244 51.9741ZM57.9116 51.7739V51.9741C57.9116 52.1727 57.8921 52.3485 57.853 52.5015C57.8156 52.6545 57.7603 52.7839 57.687 52.8896C57.6138 52.9938 57.5243 53.0728 57.4185 53.1265C57.3127 53.1785 57.1914 53.2046 57.0547 53.2046C56.9196 53.2046 56.7992 53.1785 56.6934 53.1265C56.5876 53.0728 56.4964 52.9938 56.4199 52.8896C56.3451 52.7839 56.2881 52.6545 56.249 52.5015C56.21 52.3485 56.1904 52.1727 56.1904 51.9741V51.7739C56.1904 51.5754 56.21 51.4004 56.249 51.249C56.2881 51.096 56.3442 50.9683 56.4175 50.8657C56.4923 50.7616 56.5827 50.6834 56.6885 50.6313C56.7943 50.5776 56.9147 50.5508 57.0498 50.5508C57.1849 50.5508 57.3062 50.5776 57.4136 50.6313C57.521 50.6834 57.6113 50.7616 57.6846 50.8657C57.7594 50.9683 57.8156 51.096 57.853 51.249C57.8921 51.4004 57.9116 51.5754 57.9116 51.7739Z" fill="#AFB1B8"/>
</svg>
